<svg width="668" height="320" viewBox="0 0 668 320" fill="none" xmlns="http://www.w3.org/2000/svg">
<path d="M185.962 183.41C187.696 183.41 189.062 184.21 190.062 185.81C191.062 187.397 191.562 189.597 191.562 192.41C191.562 197.743 190.289 201.877 187.742 204.81C182.809 210.81 175.842 216.343 166.842 221.41C157.842 226.47 148.216 229 137.962 229C123.962 229 113.089 225.197 105.342 217.59C97.6089 209.99 93.7422 199.597 93.7422 186.41C93.7422 177.197 95.6722 168.633 99.5322 160.72C103.406 152.78 108.779 146.477 115.652 141.81C122.526 137.143 130.296 134.81 138.962 134.81C146.696 134.81 152.896 137.113 157.562 141.72C162.229 146.3 164.562 152.53 164.562 160.41C164.562 169.597 161.259 177.49 154.652 184.09C148.046 190.697 136.879 195.937 121.152 199.81C124.486 205.937 130.819 209 140.152 209C146.152 209 152.986 206.907 160.652 202.72C168.319 198.513 174.956 193.003 180.562 186.19C182.162 184.337 183.962 183.41 185.962 183.41ZM135.562 154.41C130.622 154.41 126.456 157.273 123.062 163C119.662 168.727 117.962 175.663 117.962 183.81V184.19C125.816 182.337 132.006 179.543 136.532 175.81C141.072 172.063 143.342 167.73 143.342 162.81C143.342 160.27 142.642 158.24 141.242 156.72C139.849 155.18 137.956 154.41 135.562 154.41ZM251.162 183.41C252.889 183.41 254.252 184.21 255.252 185.81C256.252 187.397 256.752 189.597 256.752 192.41C256.752 197.743 255.482 201.877 252.942 204.81C247.209 211.877 240.979 217.68 234.252 222.22C227.526 226.74 219.889 229 211.342 229C199.616 229 190.919 223.667 185.252 213C179.586 202.333 176.752 188.53 176.752 171.59C176.752 155.323 178.846 136.793 183.032 116C187.239 95.2067 193.436 77.3433 201.622 62.41C209.836 47.47 219.609 40 230.942 40C237.356 40 242.396 42.97 246.062 48.91C249.729 54.8433 251.562 63.3433 251.562 74.41C251.562 90.2633 247.156 108.657 238.342 129.59C229.556 150.53 217.629 171.27 202.562 191.81C203.482 197.27 205.002 201.167 207.122 203.5C209.269 205.833 212.082 207 215.562 207C221.022 207 225.816 205.437 229.942 202.31C234.089 199.163 239.359 193.79 245.752 186.19C247.359 184.337 249.162 183.41 251.162 183.41ZM226.562 59.81C223.482 59.81 220.002 65.3433 216.122 76.41C212.269 87.47 208.876 101.197 205.942 117.59C203.022 133.99 201.429 149.73 201.162 164.81C210.616 149.21 218.146 133.577 223.752 117.91C229.359 102.243 232.162 87.94 232.162 75C232.162 64.8733 230.296 59.81 226.562 59.81ZM342.542 166.59C344.276 166.59 345.609 167.467 346.542 169.22C347.482 170.947 347.952 173.143 347.952 175.81C347.952 182.21 346.016 186.003 342.142 187.19C334.142 190.003 325.349 191.607 315.762 192C313.222 203.207 308.212 212.177 300.732 218.91C293.272 225.637 284.816 229 275.362 229C267.362 229 260.529 227.073 254.862 223.22C249.196 219.347 244.892 214.21 241.952 207.81C239.012 201.397 237.542 194.46 237.542 187C237.542 176.873 239.469 167.843 243.322 159.91C247.202 151.97 252.536 145.77 259.322 141.31C266.136 136.83 273.679 134.59 281.952 134.59C292.079 134.59 300.246 138.09 306.452 145.09C312.659 152.09 316.296 160.727 317.362 171C323.629 170.607 331.096 169.273 339.762 167C340.829 166.727 341.756 166.59 342.542 166.59ZM276.952 207.81C281.226 207.81 284.922 206.08 288.042 202.62C291.189 199.147 293.296 194.137 294.362 187.59C290.216 184.803 287.036 181.147 284.822 176.62C282.636 172.08 281.542 167.27 281.542 162.19C281.542 160.063 281.742 157.937 282.142 155.81H281.142C275.809 155.81 271.369 158.373 267.822 163.5C264.302 168.627 262.542 175.857 262.542 185.19C262.542 192.523 263.969 198.127 266.822 202C269.702 205.873 273.079 207.81 276.952 207.81ZM344.962 229C339.882 229 336.309 226.333 334.242 221C332.182 215.667 331.152 207.137 331.152 195.41C331.152 178.077 333.622 161.607 338.562 146C339.749 142.127 341.706 139.293 344.432 137.5C347.186 135.707 351.029 134.81 355.962 134.81C358.629 134.81 360.496 135.143 361.562 135.81C362.622 136.477 363.152 137.737 363.152 139.59C363.152 141.737 362.152 146.54 360.152 154C358.819 159.333 357.746 164 356.932 168C356.139 172 355.482 176.937 354.962 182.81C359.362 171.33 364.289 161.997 369.742 154.81C375.222 147.603 380.589 142.47 385.842 139.41C391.109 136.343 395.942 134.81 400.342 134.81C409.009 134.81 413.342 139.143 413.342 147.81C413.342 149.543 412.749 153.743 411.562 160.41C410.496 165.743 409.962 169.077 409.962 170.41C409.962 175.077 411.629 177.41 414.962 177.41C418.696 177.41 423.489 174.47 429.342 168.59C431.089 166.863 432.889 166 434.742 166C436.476 166 437.842 166.77 438.842 168.31C439.842 169.83 440.342 171.863 440.342 174.41C440.342 179.343 439.009 183.207 436.342 186C432.609 189.873 428.242 193.177 423.242 195.91C418.242 198.637 412.942 200 407.342 200C400.276 200 394.909 198.197 391.242 194.59C387.576 190.99 385.742 186.127 385.742 180C385.742 178 385.942 176 386.342 174C386.609 171.333 386.742 169.53 386.742 168.59C386.742 166.47 386.016 165.41 384.562 165.41C382.562 165.41 379.926 167.647 376.652 172.12C373.379 176.58 370.139 182.477 366.932 189.81C363.746 197.143 361.152 204.873 359.152 213C357.692 219.273 355.996 223.513 354.062 225.72C352.122 227.907 349.089 229 344.962 229ZM447.962 121.59C442.362 121.59 438.156 120.3 435.342 117.72C432.549 115.113 431.152 111.477 431.152 106.81C431.152 102.143 432.986 98.2467 436.652 95.12C440.319 91.98 444.882 90.41 450.342 90.41C455.276 90.41 459.276 91.6067 462.342 94C465.422 96.3933 466.962 99.79 466.962 104.19C466.962 109.523 465.222 113.763 461.742 116.91C458.289 120.03 453.696 121.59 447.962 121.59ZM446.342 229C437.676 229 431.372 225.937 427.432 219.81C423.519 213.663 421.562 205.53 421.562 195.41C421.562 189.41 422.322 181.71 423.842 172.31C425.382 162.897 427.349 154.127 429.742 146C430.956 141.727 432.562 138.8 434.562 137.22C436.562 135.613 439.759 134.81 444.152 134.81C450.946 134.81 454.342 137.07 454.342 141.59C454.342 144.923 453.082 152.663 450.562 164.81C447.349 179.477 445.742 189.403 445.742 194.59C445.742 198.59 446.276 201.663 447.342 203.81C448.422 205.937 450.222 207 452.742 207C455.142 207 458.142 205.333 461.742 202C465.349 198.667 470.152 193.397 476.152 186.19C477.759 184.337 479.562 183.41 481.562 183.41C483.289 183.41 484.652 184.21 485.652 185.81C486.652 187.397 487.152 189.597 487.152 192.41C487.152 197.743 485.882 201.877 483.342 204.81C470.156 220.937 457.822 229 446.342 229ZM495.542 229C487.289 229 480.696 226 475.762 220C470.822 214 468.352 206.137 468.352 196.41C468.352 185.743 470.822 175.647 475.762 166.12C480.696 156.58 487.256 148.913 495.442 143.12C503.656 137.313 512.356 134.41 521.542 134.41C524.476 134.41 526.442 134.98 527.442 136.12C528.442 137.247 529.276 139.27 529.942 142.19C532.756 141.67 535.696 141.41 538.762 141.41C545.282 141.41 548.542 143.743 548.542 148.41C548.542 151.197 547.542 157.863 545.542 168.41C542.476 183.743 540.942 194.41 540.942 200.41C540.942 202.41 541.442 204.013 542.442 205.22C543.442 206.407 544.746 207 546.352 207C548.892 207 551.956 205.363 555.542 202.09C559.142 198.823 564.016 193.523 570.162 186.19C571.749 184.337 573.542 183.41 575.542 183.41C577.289 183.41 578.662 184.21 579.662 185.81C580.662 187.397 581.162 189.597 581.162 192.41C581.162 197.743 579.892 201.877 577.352 204.81C571.892 211.603 566.089 217.333 559.942 222C553.822 226.667 547.896 229 542.162 229C537.749 229 533.709 227.5 530.042 224.5C526.376 221.5 523.616 217.397 521.762 212.19C514.822 223.397 506.082 229 495.542 229ZM502.762 208.81C505.696 208.81 508.496 207.08 511.162 203.62C513.829 200.147 515.756 195.543 516.942 189.81L524.352 153C518.746 153.127 513.579 155.23 508.852 159.31C504.126 163.377 500.356 168.743 497.542 175.41C494.749 182.077 493.352 189.137 493.352 196.59C493.352 200.737 494.186 203.81 495.852 205.81C497.519 207.81 499.822 208.81 502.762 208.81Z" fill="#6B5082"/>
<path d="M41.6328 264.62C41.6328 261.633 42.3295 258.953 43.7228 256.58C45.1161 254.2 47.0061 252.343 49.3928 251.01C51.7861 249.67 54.4061 249 57.2528 249C60.5061 249 63.3995 249.8 65.9328 251.4C68.4728 253 70.3161 255.267 71.4628 258.2H65.4328C64.6395 256.587 63.5395 255.383 62.1328 254.59C60.7261 253.797 59.0995 253.4 57.2528 253.4C55.2261 253.4 53.4195 253.857 51.8328 254.77C50.2528 255.677 49.0161 256.983 48.1228 258.69C47.2295 260.39 46.7828 262.367 46.7828 264.62C46.7828 266.88 47.2295 268.863 48.1228 270.57C49.0161 272.27 50.2528 273.583 51.8328 274.51C53.4195 275.43 55.2261 275.89 57.2528 275.89C59.0995 275.89 60.7261 275.493 62.1328 274.7C63.5395 273.907 64.6395 272.703 65.4328 271.09H71.4628C70.3161 274.023 68.4728 276.283 65.9328 277.87C63.3995 279.45 60.5061 280.24 57.2528 280.24C54.3795 280.24 51.7528 279.573 49.3728 278.24C46.9995 276.907 45.1161 275.053 43.7228 272.68C42.3295 270.3 41.6328 267.613 41.6328 264.62ZM94.7128 280.29C91.8661 280.29 89.2461 279.623 86.8528 278.29C84.4661 276.95 82.5761 275.087 81.1828 272.7C79.7895 270.307 79.0928 267.613 79.0928 264.62C79.0928 261.633 79.7895 258.953 81.1828 256.58C82.5761 254.2 84.4661 252.343 86.8528 251.01C89.2461 249.67 91.8661 249 94.7128 249C97.5861 249 100.216 249.67 102.603 251.01C104.996 252.343 106.883 254.2 108.263 256.58C109.643 258.953 110.333 261.633 110.333 264.62C110.333 267.613 109.643 270.307 108.263 272.7C106.883 275.087 104.996 276.95 102.603 278.29C100.216 279.623 97.5861 280.29 94.7128 280.29ZM94.7128 275.93C96.7328 275.93 98.5361 275.47 100.123 274.55C101.709 273.623 102.949 272.303 103.843 270.59C104.736 268.87 105.183 266.88 105.183 264.62C105.183 262.367 104.736 260.39 103.843 258.69C102.949 256.983 101.709 255.677 100.123 254.77C98.5361 253.857 96.7328 253.4 94.7128 253.4C92.6861 253.4 90.8795 253.857 89.2928 254.77C87.7128 255.677 86.4761 256.983 85.5828 258.69C84.6895 260.39 84.2428 262.367 84.2428 264.62C84.2428 266.88 84.6895 268.87 85.5828 270.59C86.4761 272.303 87.7128 273.623 89.2928 274.55C90.8795 275.47 92.6861 275.93 94.7128 275.93ZM129.713 280.29C127.659 280.29 125.809 279.93 124.163 279.21C122.523 278.49 121.233 277.47 120.293 276.15C119.353 274.83 118.883 273.29 118.883 271.53H124.253C124.373 272.85 124.893 273.937 125.813 274.79C126.739 275.637 128.039 276.06 129.713 276.06C131.439 276.06 132.786 275.643 133.753 274.81C134.726 273.977 135.213 272.9 135.213 271.58C135.213 270.553 134.909 269.717 134.303 269.07C133.703 268.423 132.956 267.923 132.063 267.57C131.169 267.217 129.929 266.837 128.343 266.43C126.349 265.903 124.729 265.37 123.483 264.83C122.236 264.283 121.173 263.44 120.293 262.3C119.413 261.153 118.973 259.627 118.973 257.72C118.973 255.96 119.413 254.42 120.293 253.1C121.173 251.78 122.403 250.767 123.983 250.06C125.569 249.353 127.406 249 129.493 249C132.453 249 134.879 249.743 136.773 251.23C138.666 252.71 139.713 254.74 139.913 257.32H134.373C134.286 256.207 133.756 255.253 132.783 254.46C131.816 253.667 130.543 253.27 128.963 253.27C127.523 253.27 126.346 253.637 125.433 254.37C124.526 255.103 124.073 256.16 124.073 257.54C124.073 258.48 124.359 259.25 124.933 259.85C125.506 260.45 126.233 260.927 127.113 261.28C127.993 261.633 129.196 262.013 130.723 262.42C132.743 262.98 134.389 263.54 135.663 264.1C136.943 264.653 138.029 265.51 138.923 266.67C139.823 267.83 140.273 269.377 140.273 271.31C140.273 272.863 139.853 274.33 139.013 275.71C138.179 277.09 136.963 278.2 135.363 279.04C133.763 279.873 131.879 280.29 129.713 280.29ZM181.783 249.4V279.98H176.763V259.04L167.433 279.98H163.963L154.593 259.04V279.98H149.573V249.4H154.983L165.723 273.38L176.413 249.4H181.783ZM196.103 253.45V262.42H206.663V266.52H196.103V275.89H207.983V279.98H191.083V249.36H207.983V253.45H196.103ZM237.033 249.4V253.49H228.893V279.98H223.883V253.49H215.693V249.4H237.033ZM251.353 249.4V279.98H246.343V249.4H251.353ZM258.983 264.62C258.983 261.633 259.679 258.953 261.073 256.58C262.466 254.2 264.359 252.343 266.753 251.01C269.139 249.67 271.756 249 274.603 249C277.856 249 280.753 249.8 283.293 251.4C285.826 253 287.666 255.267 288.813 258.2H282.783C281.989 256.587 280.889 255.383 279.483 254.59C278.076 253.797 276.449 253.4 274.603 253.4C272.576 253.4 270.773 253.857 269.193 254.77C267.606 255.677 266.366 256.983 265.473 258.69C264.579 260.39 264.133 262.367 264.133 264.62C264.133 266.88 264.579 268.863 265.473 270.57C266.366 272.27 267.606 273.583 269.193 274.51C270.773 275.43 272.576 275.89 274.603 275.89C276.449 275.89 278.076 275.493 279.483 274.7C280.889 273.907 281.989 272.703 282.783 271.09H288.813C287.666 274.023 285.826 276.283 283.293 277.87C280.753 279.45 277.856 280.24 274.603 280.24C271.729 280.24 269.103 279.573 266.723 278.24C264.349 276.907 262.466 275.053 261.073 272.68C259.679 270.3 258.983 267.613 258.983 264.62ZM340.153 273.73H327.343L325.143 279.98H319.913L330.863 249.36H336.673L347.633 279.98H342.353L340.153 273.73ZM338.743 269.64L333.773 255.43L328.753 269.64H338.743ZM382.053 279.98H377.043L361.953 257.14V279.98H356.933V249.36H361.953L377.043 272.15V249.36H382.053V279.98ZM401.343 249.4C404.596 249.4 407.449 250.023 409.903 251.27C412.349 252.517 414.239 254.307 415.573 256.64C416.906 258.973 417.573 261.693 417.573 264.8C417.573 267.907 416.906 270.607 415.573 272.9C414.239 275.187 412.349 276.94 409.903 278.16C407.449 279.373 404.596 279.98 401.343 279.98H391.353V249.4H401.343ZM401.343 275.89C404.923 275.89 407.666 274.923 409.573 272.99C411.479 271.05 412.433 268.32 412.433 264.8C412.433 261.253 411.479 258.483 409.573 256.49C407.666 254.49 404.923 253.49 401.343 253.49H396.373V275.89H401.343ZM466.843 264.27C468.489 264.563 469.883 265.43 471.023 266.87C472.169 268.303 472.743 269.93 472.743 271.75C472.743 273.303 472.339 274.703 471.533 275.95C470.726 277.197 469.559 278.18 468.033 278.9C466.506 279.62 464.733 279.98 462.713 279.98H450.483V249.4H462.133C464.219 249.4 466.009 249.753 467.503 250.46C469.003 251.16 470.133 252.107 470.893 253.3C471.659 254.487 472.043 255.813 472.043 257.28C472.043 259.04 471.573 260.507 470.633 261.68C469.693 262.853 468.429 263.717 466.843 264.27ZM455.493 262.25H461.693C463.339 262.25 464.626 261.877 465.553 261.13C466.473 260.377 466.933 259.297 466.933 257.89C466.933 256.51 466.473 255.433 465.553 254.66C464.626 253.88 463.339 253.49 461.693 253.49H455.493V262.25ZM462.273 275.89C463.973 275.89 465.306 275.48 466.273 274.66C467.239 273.833 467.723 272.687 467.723 271.22C467.723 269.727 467.209 268.54 466.183 267.66C465.156 266.78 463.793 266.34 462.093 266.34H455.493V275.89H462.273ZM487.063 253.45V262.42H497.623V266.52H487.063V275.89H498.943V279.98H482.043V249.36H498.943V253.45H487.063ZM526.673 273.73H513.873L511.673 279.98H506.433L517.393 249.36H523.203L534.153 279.98H528.873L526.673 273.73ZM525.263 269.64L520.293 255.43L515.283 269.64H525.263ZM548.423 249.4V268.89C548.423 271.21 549.033 272.957 550.253 274.13C551.473 275.303 553.166 275.89 555.333 275.89C557.533 275.89 559.243 275.303 560.463 274.13C561.676 272.957 562.283 271.21 562.283 268.89V249.4H567.303V268.8C567.303 271.293 566.759 273.407 565.673 275.14C564.586 276.873 563.136 278.167 561.323 279.02C559.503 279.867 557.493 280.29 555.293 280.29C553.093 280.29 551.089 279.867 549.283 279.02C547.483 278.167 546.053 276.873 544.993 275.14C543.939 273.407 543.413 271.293 543.413 268.8V249.4H548.423ZM596.363 249.4V253.49H588.223V279.98H583.203V253.49H575.023V249.4H596.363ZM628.323 249.4L618.203 268.89V279.98H613.183V268.89L603.023 249.4H608.613L615.693 264.4L622.783 249.4H628.323Z" fill="#5D3C65"/>
</svg>
