<svg xmlns="http://www.w3.org/2000/svg" viewBox="0 0 668 320" width="668" height="320" role="img" aria-label="Eloria - Cosmetic and Beauty">
  <title>Eloria</title>
  <g fill="#111111">
    <path transform="translate(87.15,228.00)" d="M98.81,-44.59Q101.41,-44.59 102.91,-42.19Q104.41,-39.81 104.41,-35.59Q104.41,-27.59 100.59,-23.19Q93.19,-14.19 79.69,-6.59Q66.19,1.00 50.81,1.00Q29.81,1.00 18.19,-10.41Q6.59,-21.81 6.59,-41.59Q6.59,-55.41 12.38,-67.28Q18.19,-79.19 28.50,-86.19Q38.81,-93.19 51.81,-93.19Q63.41,-93.19 70.41,-86.28Q77.41,-79.41 77.41,-67.59Q77.41,-53.81 67.50,-43.91Q57.59,-34.00 34.00,-28.19Q39.00,-19.00 53.00,-19.00Q62.00,-19.00 73.50,-25.28Q85.00,-31.59 93.41,-41.81Q95.81,-44.59 98.81,-44.59ZM48.41,-73.59Q41.00,-73.59 35.91,-65.00Q30.81,-56.41 30.81,-44.19L30.81,-43.81Q42.59,-46.59 49.38,-52.19Q56.19,-57.81 56.19,-65.19Q56.19,-69.00 54.09,-71.28Q52.00,-73.59 48.41,-73.59ZM164.01,-44.59Q166.60,-44.59 168.10,-42.19Q169.60,-39.81 169.60,-35.59Q169.60,-27.59 165.79,-23.19Q157.19,-12.59 147.10,-5.78Q137.01,1.00 124.19,1.00Q106.60,1.00 98.10,-15.00Q89.60,-31.00 89.60,-56.41Q89.60,-80.81 95.88,-112.00Q102.19,-143.19 114.47,-165.59Q126.79,-188.00 143.79,-188.00Q153.41,-188.00 158.91,-179.09Q164.41,-170.19 164.41,-153.59Q164.41,-129.81 151.19,-98.41Q138.01,-67.00 115.41,-36.19Q116.79,-28.00 119.97,-24.50Q123.19,-21.00 128.41,-21.00Q136.60,-21.00 142.79,-25.69Q149.01,-30.41 158.60,-41.81Q161.01,-44.59 164.01,-44.59ZM139.41,-168.19Q134.79,-168.19 128.97,-151.59Q123.19,-135.00 118.79,-110.41Q114.41,-85.81 114.01,-63.19Q128.19,-86.59 136.60,-110.09Q145.01,-133.59 145.01,-153.00Q145.01,-168.19 139.41,-168.19ZM255.39,-61.41Q257.99,-61.41 259.39,-58.78Q260.80,-56.19 260.80,-52.19Q260.80,-42.59 254.99,-40.81Q242.99,-36.59 228.61,-36.00Q224.80,-19.19 213.58,-9.09Q202.39,1.00 188.21,1.00Q176.21,1.00 167.71,-4.78Q159.21,-10.59 154.80,-20.19Q150.39,-29.81 150.39,-41.00Q150.39,-56.19 156.17,-68.09Q161.99,-80.00 172.17,-86.69Q182.39,-93.41 194.80,-93.41Q209.99,-93.41 219.30,-82.91Q228.61,-72.41 230.21,-57.00Q239.61,-57.59 252.61,-61.00Q254.21,-61.41 255.39,-61.41ZM189.80,-20.19Q196.21,-20.19 200.89,-25.38Q205.61,-30.59 207.21,-40.41Q200.99,-44.59 197.67,-51.38Q194.39,-58.19 194.39,-65.81Q194.39,-69.00 194.99,-72.19L193.99,-72.19Q185.99,-72.19 180.67,-64.50Q175.39,-56.81 175.39,-42.81Q175.39,-31.81 179.67,-26.00Q183.99,-20.19 189.80,-20.19ZM257.81,1.00Q250.19,1.00 247.09,-7.00Q244.00,-15.00 244.00,-32.59Q244.00,-58.59 251.41,-82.00Q253.19,-87.81 257.28,-90.50Q261.41,-93.19 268.81,-93.19Q272.81,-93.19 274.41,-92.19Q276.00,-91.19 276.00,-88.41Q276.00,-85.19 273.00,-74.00Q271.00,-66.00 269.78,-60.00Q268.59,-54.00 267.81,-45.19Q274.41,-62.41 282.59,-73.19Q290.81,-84.00 298.69,-88.59Q306.59,-93.19 313.19,-93.19Q326.19,-93.19 326.19,-80.19Q326.19,-77.59 324.41,-67.59Q322.81,-59.59 322.81,-57.59Q322.81,-50.59 327.81,-50.59Q333.41,-50.59 342.19,-59.41Q344.81,-62.00 347.59,-62.00Q350.19,-62.00 351.69,-59.69Q353.19,-57.41 353.19,-53.59Q353.19,-46.19 349.19,-42.00Q343.59,-36.19 336.09,-32.09Q328.59,-28.00 320.19,-28.00Q309.59,-28.00 304.09,-33.41Q298.59,-38.81 298.59,-48.00Q298.59,-51.00 299.19,-54.00Q299.59,-58.00 299.59,-59.41Q299.59,-62.59 297.41,-62.59Q294.41,-62.59 289.50,-55.88Q284.59,-49.19 279.78,-38.19Q275.00,-27.19 272.00,-15.00Q269.81,-5.59 266.91,-2.28Q264.00,1.00 257.81,1.00ZM360.81,-106.41Q352.41,-106.41 348.19,-110.28Q344.00,-114.19 344.00,-121.19Q344.00,-128.19 349.50,-132.88Q355.00,-137.59 363.19,-137.59Q370.59,-137.59 375.19,-134.00Q379.81,-130.41 379.81,-123.81Q379.81,-115.81 374.59,-111.09Q369.41,-106.41 360.81,-106.41ZM359.19,1.00Q346.19,1.00 340.28,-8.19Q334.41,-17.41 334.41,-32.59Q334.41,-41.59 336.69,-55.69Q339.00,-69.81 342.59,-82.00Q344.41,-88.41 347.41,-90.78Q350.41,-93.19 357.00,-93.19Q367.19,-93.19 367.19,-86.41Q367.19,-81.41 363.41,-63.19Q358.59,-41.19 358.59,-33.41Q358.59,-27.41 360.19,-24.19Q361.81,-21.00 365.59,-21.00Q369.19,-21.00 374.59,-26.00Q380.00,-31.00 389.00,-41.81Q391.41,-44.59 394.41,-44.59Q397.00,-44.59 398.50,-42.19Q400.00,-39.81 400.00,-35.59Q400.00,-27.59 396.19,-23.19Q376.41,1.00 359.19,1.00ZM408.39,1.00Q396.01,1.00 388.61,-8.00Q381.20,-17.00 381.20,-31.59Q381.20,-47.59 388.61,-61.88Q396.01,-76.19 408.29,-84.88Q420.61,-93.59 434.39,-93.59Q438.79,-93.59 440.29,-91.88Q441.79,-90.19 442.79,-85.81Q447.01,-86.59 451.61,-86.59Q461.39,-86.59 461.39,-79.59Q461.39,-75.41 458.39,-59.59Q453.79,-36.59 453.79,-27.59Q453.79,-24.59 455.29,-22.78Q456.79,-21.00 459.20,-21.00Q463.01,-21.00 468.39,-25.91Q473.79,-30.81 483.01,-41.81Q485.39,-44.59 488.39,-44.59Q491.01,-44.59 492.51,-42.19Q494.01,-39.81 494.01,-35.59Q494.01,-27.59 490.20,-23.19Q482.01,-13.00 472.79,-6.00Q463.61,1.00 455.01,1.00Q448.39,1.00 442.89,-3.50Q437.39,-8.00 434.61,-15.81Q424.20,1.00 408.39,1.00ZM415.61,-19.19Q420.01,-19.19 424.01,-24.38Q428.01,-29.59 429.79,-38.19L437.20,-75.00Q428.79,-74.81 421.70,-68.69Q414.61,-62.59 410.39,-52.59Q406.20,-42.59 406.20,-31.41Q406.20,-25.19 408.70,-22.19Q411.20,-19.19 415.61,-19.19Z"/>
    <path transform="translate(40.00,279.98)" d="M1.63,-15.36Q1.63,-19.84 3.72,-23.40Q5.81,-26.97 9.39,-28.97Q12.98,-30.98 17.25,-30.98Q22.13,-30.98 25.93,-28.58Q29.74,-26.18 31.46,-21.78L25.43,-21.78Q24.24,-24.20 22.13,-25.39Q20.02,-26.58 17.25,-26.58Q14.21,-26.58 11.83,-25.21Q9.46,-23.85 8.12,-21.29Q6.78,-18.74 6.78,-15.36Q6.78,-11.97 8.12,-9.41Q9.46,-6.86 11.83,-5.47Q14.21,-4.09 17.25,-4.09Q20.02,-4.09 22.13,-5.28Q24.24,-6.47 25.43,-8.89L31.46,-8.89Q29.74,-4.49 25.93,-2.11Q22.13,0.26 17.25,0.26Q12.94,0.26 9.37,-1.74Q5.81,-3.74 3.72,-7.30Q1.63,-10.87 1.63,-15.36ZM54.71,0.31Q50.44,0.31 46.85,-1.69Q43.27,-3.70 41.18,-7.28Q39.09,-10.87 39.09,-15.36Q39.09,-19.84 41.18,-23.40Q43.27,-26.97 46.85,-28.97Q50.44,-30.98 54.71,-30.98Q59.02,-30.98 62.60,-28.97Q66.19,-26.97 68.26,-23.40Q70.33,-19.84 70.33,-15.36Q70.33,-10.87 68.26,-7.28Q66.19,-3.70 62.60,-1.69Q59.02,0.31 54.71,0.31ZM54.71,-4.05Q57.74,-4.05 60.12,-5.43Q62.50,-6.82 63.84,-9.39Q65.18,-11.97 65.18,-15.36Q65.18,-18.74 63.84,-21.29Q62.50,-23.85 60.12,-25.21Q57.74,-26.58 54.71,-26.58Q51.67,-26.58 49.29,-25.21Q46.92,-23.85 45.58,-21.29Q44.24,-18.74 44.24,-15.36Q44.24,-11.97 45.58,-9.39Q46.92,-6.82 49.29,-5.43Q51.67,-4.05 54.71,-4.05ZM89.71,0.31Q86.63,0.31 84.16,-0.77Q81.70,-1.85 80.29,-3.83Q78.88,-5.81 78.88,-8.45L84.25,-8.45Q84.43,-6.47 85.81,-5.19Q87.20,-3.92 89.71,-3.92Q92.30,-3.92 93.75,-5.17Q95.21,-6.42 95.21,-8.40Q95.21,-9.94 94.30,-10.91Q93.40,-11.88 92.06,-12.41Q90.72,-12.94 88.34,-13.55Q85.35,-14.34 83.48,-15.15Q81.61,-15.97 80.29,-17.68Q78.97,-19.40 78.97,-22.26Q78.97,-24.90 80.29,-26.88Q81.61,-28.86 83.98,-29.92Q86.36,-30.98 89.49,-30.98Q93.93,-30.98 96.77,-28.75Q99.61,-26.53 99.91,-22.66L94.37,-22.66Q94.24,-24.33 92.78,-25.52Q91.33,-26.71 88.96,-26.71Q86.80,-26.71 85.43,-25.61Q84.07,-24.51 84.07,-22.44Q84.07,-21.03 84.93,-20.13Q85.79,-19.23 87.11,-18.70Q88.43,-18.17 90.72,-17.56Q93.75,-16.72 95.66,-15.88Q97.58,-15.05 98.92,-13.31Q100.27,-11.57 100.27,-8.67Q100.27,-6.34 99.01,-4.27Q97.76,-2.20 95.36,-0.94Q92.96,0.31 89.71,0.31ZM141.78,-30.58L141.78,-0.00L136.76,-0.00L136.76,-20.94L127.43,-0.00L123.96,-0.00L114.59,-20.94L114.59,-0.00L109.57,-0.00L109.57,-30.58L114.98,-30.58L125.72,-6.60L136.41,-30.58L141.78,-30.58ZM156.10,-26.53L156.10,-17.56L166.66,-17.56L166.66,-13.46L156.10,-13.46L156.10,-4.09L167.98,-4.09L167.98,-0.00L151.08,-0.00L151.08,-30.62L167.98,-30.62L167.98,-26.53L156.10,-26.53ZM197.03,-30.58L197.03,-26.49L188.89,-26.49L188.89,-0.00L183.88,-0.00L183.88,-26.49L175.69,-26.49L175.69,-30.58L197.03,-30.58ZM211.35,-30.58L211.35,-0.00L206.34,-0.00L206.34,-30.58L211.35,-30.58ZM218.98,-15.36Q218.98,-19.84 221.07,-23.40Q223.16,-26.97 226.75,-28.97Q230.33,-30.98 234.60,-30.98Q239.48,-30.98 243.29,-28.58Q247.09,-26.18 248.81,-21.78L242.78,-21.78Q241.59,-24.20 239.48,-25.39Q237.37,-26.58 234.60,-26.58Q231.56,-26.58 229.19,-25.21Q226.81,-23.85 225.47,-21.29Q224.13,-18.74 224.13,-15.36Q224.13,-11.97 225.47,-9.41Q226.81,-6.86 229.19,-5.47Q231.56,-4.09 234.60,-4.09Q237.37,-4.09 239.48,-5.28Q241.59,-6.47 242.78,-8.89L248.81,-8.89Q247.09,-4.49 243.29,-2.11Q239.48,0.26 234.60,0.26Q230.29,0.26 226.72,-1.74Q223.16,-3.74 221.07,-7.30Q218.98,-10.87 218.98,-15.36ZM300.15,-6.25L287.34,-6.25L285.14,-0.00L279.91,-0.00L290.86,-30.62L296.67,-30.62L307.63,-0.00L302.35,-0.00L300.15,-6.25ZM298.74,-10.34L293.77,-24.55L288.75,-10.34L298.74,-10.34ZM342.05,-0.00L337.04,-0.00L321.95,-22.84L321.95,-0.00L316.93,-0.00L316.93,-30.62L321.95,-30.62L337.04,-7.83L337.04,-30.62L342.05,-30.62L342.05,-0.00ZM361.34,-30.58Q366.22,-30.58 369.90,-28.71Q373.57,-26.84 375.57,-23.34Q377.57,-19.84 377.57,-15.18Q377.57,-10.52 375.57,-7.08Q373.57,-3.65 369.90,-1.82Q366.22,-0.00 361.34,-0.00L351.35,-0.00L351.35,-30.58L361.34,-30.58ZM361.34,-4.09Q366.71,-4.09 369.57,-6.99Q372.43,-9.90 372.43,-15.18Q372.43,-20.50 369.57,-23.49Q366.71,-26.49 361.34,-26.49L356.37,-26.49L356.37,-4.09L361.34,-4.09ZM426.84,-15.71Q429.31,-15.27 431.02,-13.11Q432.74,-10.96 432.74,-8.23Q432.74,-5.90 431.53,-4.03Q430.32,-2.16 428.03,-1.08Q425.74,-0.00 422.71,-0.00L410.48,-0.00L410.48,-30.58L422.13,-30.58Q425.26,-30.58 427.50,-29.52Q429.75,-28.47 430.89,-26.68Q432.04,-24.90 432.04,-22.70Q432.04,-20.06 430.63,-18.30Q429.22,-16.54 426.84,-15.71ZM415.49,-17.73L421.69,-17.73Q424.16,-17.73 425.55,-18.85Q426.93,-19.98 426.93,-22.09Q426.93,-24.16 425.55,-25.32Q424.16,-26.49 421.69,-26.49L415.49,-26.49L415.49,-17.73ZM422.27,-4.09Q424.82,-4.09 426.27,-5.32Q427.72,-6.56 427.72,-8.76Q427.72,-11.00 426.18,-12.32Q424.64,-13.64 422.09,-13.64L415.49,-13.64L415.49,-4.09L422.27,-4.09ZM447.06,-26.53L447.06,-17.56L457.62,-17.56L457.62,-13.46L447.06,-13.46L447.06,-4.09L458.94,-4.09L458.94,-0.00L442.04,-0.00L442.04,-30.62L458.94,-30.62L458.94,-26.53L447.06,-26.53ZM486.67,-6.25L473.87,-6.25L471.67,-0.00L466.43,-0.00L477.39,-30.62L483.20,-30.62L494.15,-0.00L488.87,-0.00L486.67,-6.25ZM485.26,-10.34L480.29,-24.55L475.28,-10.34L485.26,-10.34ZM508.42,-30.58L508.42,-11.09Q508.42,-7.61 510.25,-5.85Q512.08,-4.09 515.33,-4.09Q518.63,-4.09 520.46,-5.85Q522.28,-7.61 522.28,-11.09L522.28,-30.58L527.30,-30.58L527.30,-11.18Q527.30,-7.44 525.67,-4.84Q524.04,-2.24 521.32,-0.96Q518.59,0.31 515.29,0.31Q511.99,0.31 509.28,-0.96Q506.58,-2.24 504.99,-4.84Q503.41,-7.44 503.41,-11.18L503.41,-30.58L508.42,-30.58ZM556.36,-30.58L556.36,-26.49L548.22,-26.49L548.22,-0.00L543.20,-0.00L543.20,-26.49L535.02,-26.49L535.02,-30.58L556.36,-30.58ZM588.32,-30.58L578.20,-11.09L578.20,-0.00L573.18,-0.00L573.18,-11.09L563.02,-30.58L568.61,-30.58L575.69,-15.58L582.78,-30.58L588.32,-30.58Z"/>
  </g>
</svg>
