<svg viewBox="0 0 640 260" xmlns="http://www.w3.org/2000/svg">
  <defs>
    <linearGradient id="petalGrad1" x1="0%" y1="0%" x2="100%" y2="100%">
      <stop offset="0%" stop-color="#D9BFEA"></stop>
      <stop offset="100%" stop-color="#F3C9DC"></stop>
    </linearGradient>
    <linearGradient id="lineGrad1" x1="0%" y1="0%" x2="100%" y2="0%">
      <stop offset="0%" stop-color="#D9BFEA" stop-opacity="0"></stop>
      <stop offset="50%" stop-color="#B98CB0" stop-opacity="0.9"></stop>
      <stop offset="100%" stop-color="#D9BFEA" stop-opacity="0"></stop>
    </linearGradient>
  </defs>


  <path d="M252.14 150L214.65 150Q214.38 150 214.38 149.47Q214.38 148.94 214.65 148.94Q217.64 148.94 219.18 148.50Q220.72 148.06 221.25 146.74Q221.78 145.42 221.78 142.87L221.78 102.13Q221.78 99.58 221.25 98.30Q220.72 97.02 219.18 96.54Q217.64 96.06 214.65 96.06Q214.38 96.06 214.38 95.53Q214.38 95 214.65 95L250.55 95Q251.43 95 251.43 95.79L251.61 106.88Q251.61 107.14 251.12 107.19Q250.64 107.23 250.55 106.97Q249.94 102.13 247.12 99.62Q244.30 97.11 239.73 97.11L235.24 97.11Q232.60 97.11 231.19 97.55Q229.78 97.99 229.26 99.18Q228.73 100.37 228.73 102.48L228.73 142.52Q228.73 144.63 229.21 145.82Q229.70 147.01 231.02 147.49Q232.34 147.98 234.71 147.98L240.52 147.98Q245.54 147.98 248.79 145.03Q252.05 142.08 253.28 136.62Q253.28 136.36 253.81 136.45Q254.34 136.54 254.34 136.80Q253.98 139.18 253.72 142.52Q253.46 145.86 253.46 148.68Q253.46 150 252.14 150M247.21 129.76Q247.21 125.98 245.05 124.17Q242.90 122.37 238.14 122.37L225.38 122.37L225.38 120.34L238.41 120.34Q242.90 120.34 245.01 118.80Q247.12 117.26 247.12 114.01Q247.12 113.83 247.60 113.83Q248.09 113.83 248.09 114.01Q248.09 116.74 248.04 118.23Q248 119.73 248 121.40Q248 123.42 248.13 125.45Q248.26 127.47 248.26 129.76Q248.26 129.94 247.74 129.94Q247.21 129.94 247.21 129.76M263.90 150Q263.73 150 263.73 149.47Q263.73 148.94 263.90 148.94Q267.16 148.94 268.17 147.76Q269.18 146.57 269.18 142.87L269.27 97.64Q269.27 94.56 268.70 93.15Q268.13 91.74 266.54 91.74Q265.22 91.74 262.76 92.89Q262.41 93.06 262.19 92.54Q261.97 92.01 262.23 91.92L274.02 86.29Q274.20 86.20 274.38 86.20Q274.64 86.20 275.04 86.46Q275.43 86.73 275.43 87.08L275.43 142.87Q275.43 146.48 276.40 147.71Q277.37 148.94 280.62 148.94Q280.98 148.94 280.98 149.47Q280.98 150 280.62 150Q279.04 150 276.88 149.91Q274.73 149.82 272.26 149.82Q269.89 149.82 267.73 149.91Q265.58 150 263.90 150" fill="#5B3A5C"></path>
  <path d="M343.06 126.15L342.53 125.18Q345.87 121.14 348.07 119.02Q350.27 116.91 351.86 116.08Q353.44 115.24 354.85 115.24Q356.70 115.24 358.54 116.38Q360.39 117.53 360.39 119.29Q360.39 120.61 359.51 121.53Q358.63 122.46 357.14 122.46Q355.73 122.46 354.89 121.66Q354.06 120.87 353.22 120.12Q352.38 119.38 350.98 119.38Q350.27 119.38 349.39 119.82Q348.51 120.26 347.06 121.71Q345.61 123.16 343.06 126.15M333.73 150Q333.46 150 333.46 149.47Q333.46 148.94 333.73 148.94Q336.90 148.94 337.91 147.76Q338.92 146.57 338.92 142.87L338.92 125.71Q338.92 122.90 338.26 121.58Q337.60 120.26 336.02 120.26Q335.14 120.26 333.99 120.56Q332.85 120.87 331.35 121.49Q331 121.66 330.82 121.18Q330.65 120.70 330.91 120.52L341.74 115.33Q342.09 115.24 342.26 115.24Q343.06 115.24 344.02 117.18Q344.99 119.11 344.99 122.72L344.99 142.87Q344.99 145.34 345.65 146.66Q346.31 147.98 348.12 148.46Q349.92 148.94 353.35 148.94Q353.62 148.94 353.62 149.47Q353.62 150 353.35 150Q351.06 150 348.16 149.91Q345.26 149.82 342 149.82Q339.62 149.82 337.47 149.91Q335.31 150 333.73 150M368.73 150Q368.46 150 368.46 149.47Q368.46 148.94 368.73 148.94Q371.90 148.94 372.95 147.76Q374.01 146.57 374.01 142.87L374.01 126.68Q374.01 123.60 373.39 122.19Q372.78 120.78 371.19 120.78Q370.49 120.78 369.56 121.05Q368.64 121.31 367.41 121.93Q367.06 122.02 366.84 121.53Q366.62 121.05 366.97 120.87L378.94 115.33Q379.20 115.24 379.29 115.24Q379.55 115.24 379.86 115.50Q380.17 115.77 380.17 116.12Q380.17 116.91 380.08 119.55Q379.99 122.19 379.99 126.50L379.99 142.87Q379.99 146.57 381 147.76Q382.02 148.94 385.27 148.94Q385.54 148.94 385.54 149.47Q385.54 150 385.27 150Q383.69 150 381.53 149.91Q379.38 149.82 377 149.82Q374.62 149.82 372.51 149.91Q370.40 150 368.73 150M376.47 105.38Q374.45 105.38 373.26 104.28Q372.07 103.18 372.07 101.16Q372.07 99.22 373.26 98.17Q374.45 97.11 376.47 97.11Q378.41 97.11 379.51 98.17Q380.61 99.22 380.61 101.16Q380.61 105.38 376.47 105.38M427.05 146.22L417.98 150.53Q417.63 150.70 417.19 150.70Q415.87 150.70 414.68 148.72Q413.50 146.74 413.50 143.05L413.50 126.94Q413.50 121.49 412.13 119.16Q410.77 116.82 408.39 116.82Q406.19 116.82 404.87 118.01Q403.55 119.20 402.98 120.74Q402.41 122.28 402.14 123.60Q401.97 125.27 401.13 126.42Q400.30 127.56 398.36 127.56Q396.60 127.56 395.81 126.68Q395.02 125.80 395.02 124.74Q395.02 122.90 396.73 121.22Q398.45 119.55 401.09 118.14Q403.73 116.74 406.59 115.94Q409.45 115.15 411.74 115.15Q415.34 115.15 417.41 117.48Q419.48 119.82 419.48 124.30L419.48 140.50Q419.48 143.40 420.27 144.81Q421.06 146.22 422.82 146.22Q424.32 146.22 426.70 145.25Q427.05 145.07 427.27 145.56Q427.49 146.04 427.05 146.22M401.79 150.62Q398.27 150.62 396.47 148.86Q394.66 147.10 394.66 144.46Q394.66 142.34 395.81 140.89Q396.95 139.44 399.11 138.30Q401.26 137.15 404.34 136.01L414.38 132.31L414.64 133.46L406.63 136.71Q405.31 137.24 404.21 137.94Q403.11 138.65 402.41 139.66Q401.70 140.67 401.70 142.08Q401.70 144.19 403.11 145.56Q404.52 146.92 406.54 146.92Q407.34 146.92 408.22 146.66Q409.10 146.39 410.33 145.69L415.52 142.43L415.70 143.66L409.27 147.89Q407.25 149.38 405.53 150Q403.82 150.62 401.79 150.62" fill="#5B3A5C"></path>

  <g transform="translate(307.74,133.02)">
    <g transform="rotate(0)"><ellipse cx="0" cy="-11" rx="6" ry="11" fill="#5B3A5C"></ellipse></g>
    <g transform="rotate(72)"><ellipse cx="0" cy="-11" rx="6" ry="11" fill="#5B3A5C"></ellipse></g>
    <g transform="rotate(144)"><ellipse cx="0" cy="-11" rx="6" ry="11" fill="#5B3A5C"></ellipse></g>
    <g transform="rotate(216)"><ellipse cx="0" cy="-11" rx="6" ry="11" fill="#5B3A5C"></ellipse></g>
    <g transform="rotate(288)"><ellipse cx="0" cy="-11" rx="6" ry="11" fill="#5B3A5C"></ellipse></g>
    <circle cx="0" cy="0" r="3.5" fill="#5B3A5C"></circle>
  </g>

  <line x1="130" y1="180" x2="510" y2="180" stroke="url(#lineGrad1)" stroke-width="1"></line>

  <path d="M254.80 217.62L254.92 217.62L254.85 220.05Q254.47 220.66 253.90 221.15Q253.32 221.64 252.51 221.93Q251.70 222.21 250.63 222.21Q248.98 222.19 247.72 221.53Q246.45 220.86 245.74 219.64Q245.04 218.41 245.04 216.74Q245.04 215.09 245.74 213.86Q246.43 212.64 247.70 211.97Q248.97 211.29 250.71 211.29Q251.85 211.29 252.76 211.57Q253.68 211.84 254.32 212.25L254.53 214.51L254.40 214.51Q254.04 213.13 253.06 212.47Q252.07 211.80 250.77 211.80Q249.48 211.80 248.55 212.41Q247.62 213.01 247.11 214.12Q246.60 215.22 246.60 216.72Q246.60 218.21 247.10 219.31Q247.60 220.43 248.51 221.05Q249.42 221.67 250.63 221.70Q251.73 221.70 252.60 221.31Q253.47 220.92 254.04 220.03Q254.61 219.13 254.80 217.62M269.21 211.29Q270.89 211.29 272.14 211.97Q273.40 212.64 274.09 213.87Q274.79 215.10 274.79 216.75Q274.79 218.40 274.09 219.63Q273.40 220.86 272.14 221.53Q270.89 222.21 269.21 222.21Q267.56 222.21 266.31 221.53Q265.06 220.86 264.36 219.63Q263.66 218.40 263.66 216.75Q263.66 215.10 264.36 213.87Q265.06 212.64 266.31 211.97Q267.56 211.29 269.21 211.29M269.21 221.70Q270.43 221.70 271.31 221.09Q272.20 220.47 272.69 219.36Q273.19 218.25 273.19 216.75Q273.19 215.25 272.69 214.14Q272.20 213.03 271.31 212.41Q270.43 211.80 269.21 211.80Q268.03 211.80 267.13 212.41Q266.24 213.03 265.75 214.14Q265.25 215.25 265.25 216.75Q265.25 218.25 265.75 219.36Q266.24 220.47 267.13 221.09Q268.03 221.70 269.21 221.70M286.40 211.29Q286.65 211.29 286.98 211.32Q287.31 211.35 287.65 211.40Q287.99 211.46 288.25 211.51Q288.51 211.56 288.63 211.62L288.57 213.41L288.44 213.41Q288.44 212.67 287.91 212.24Q287.39 211.80 286.59 211.80Q285.75 211.80 285.23 212.29Q284.72 212.78 284.72 213.44Q284.70 213.76 284.89 214.13Q285.08 214.50 285.47 214.81L288.39 217.26Q288.92 217.66 289.13 218.20Q289.35 218.73 289.34 219.30Q289.31 220.62 288.45 221.41Q287.60 222.21 286.14 222.21Q285.68 222.21 285.14 222.12Q284.61 222.03 284.15 221.84Q283.68 221.66 283.40 221.35Q283.32 221.09 283.33 220.69Q283.34 220.29 283.42 219.87Q283.50 219.45 283.64 219.12L283.77 219.12Q283.70 219.88 283.99 220.49Q284.28 221.09 284.84 221.41Q285.41 221.73 286.14 221.70Q287.03 221.67 287.60 221.15Q288.18 220.63 288.18 219.79Q288.18 219.36 287.99 219Q287.79 218.64 287.39 218.35L284.60 215.99Q284.03 215.56 283.79 215Q283.55 214.43 283.58 213.85Q283.61 213.18 283.94 212.59Q284.27 212 284.89 211.64Q285.51 211.29 286.40 211.29M287.28 211.44L288.63 211.44L288.63 211.75L287.28 211.75L287.28 211.44M303.55 221.18L308.44 211.29L308.56 212.50L304.57 220.66Q304.57 220.66 304.44 220.93Q304.32 221.19 304.19 221.55Q304.06 221.91 304.03 222.24L303.88 222.24L303.55 221.18M298.57 220.91L298.90 220.91L298.90 222L297.24 222L297.24 221.85Q297.25 221.85 297.36 221.85Q297.48 221.85 297.48 221.85Q297.88 221.85 298.20 221.60Q298.51 221.35 298.57 220.91M299.31 221.15L299.41 221.15Q299.41 221.16 299.41 221.18Q299.41 221.19 299.41 221.22Q299.41 221.46 299.58 221.66Q299.76 221.87 300 221.87L300.22 221.87L300.22 222L299.31 222L299.31 221.15M298.44 222L299.74 211.29L299.88 211.29L300.25 212.38L299.34 222L298.44 222M299.56 213.60L299.88 211.29L304.39 220.20L303.88 222.24L299.56 213.60M308.44 211.29L308.58 211.29L309.91 222L308.32 222L307.53 213.65L308.44 211.29M309.46 222L309.46 220.91L309.78 220.91Q309.85 221.35 310.17 221.60Q310.48 221.85 310.87 221.85Q310.87 221.85 310.99 221.85Q311.11 221.85 311.11 221.85L311.11 222L309.46 222M308.25 221.15L308.35 221.15L308.35 222L307.44 222L307.44 221.87L307.66 221.87Q307.92 221.87 308.08 221.66Q308.25 221.46 308.25 221.22Q308.25 221.19 308.25 221.18Q308.25 221.16 308.25 221.15M320.17 211.50L321.56 211.50L321.56 222L320.17 222L320.17 211.50M321.52 221.47L325.58 221.47L325.70 222L321.52 222L321.52 221.47M321.52 216.57L324.97 216.57L324.97 217.08L321.52 217.08L321.52 216.57M321.52 211.50L325.64 211.50L325.64 212.03L321.52 212.03L321.52 211.50M326.41 219.36L326.56 219.36L325.75 222L323.11 222L323.65 221.47Q324.43 221.47 324.95 221.21Q325.48 220.95 325.82 220.47Q326.17 219.99 326.41 219.36M323.92 217.05L324.97 217.05L324.97 218.19L324.82 218.19L324.82 218Q324.82 217.62 324.56 217.35Q324.31 217.08 323.92 217.08L323.92 217.05M324.82 215.46L324.97 215.46L324.97 216.60L323.92 216.60L323.92 216.57Q324.31 216.56 324.56 216.28Q324.82 216.01 324.82 215.64L324.82 215.46M324.40 211.98L325.64 211.98L325.64 213.36L325.49 213.36L325.49 213.12Q325.49 212.66 325.18 212.34Q324.88 212.03 324.40 212.01L324.40 211.98M325.64 211.23L325.64 211.66L323.81 211.50Q324.14 211.50 324.51 211.46Q324.88 211.41 325.19 211.35Q325.51 211.29 325.64 211.23M320.17 220.91L320.21 220.91L320.21 222L319.01 222L319.01 221.85Q319.01 221.85 319.11 221.85Q319.21 221.85 319.21 221.85Q319.60 221.85 319.87 221.57Q320.15 221.29 320.17 220.91M320.21 211.50L320.21 212.59L320.17 212.59Q320.17 212.21 319.88 211.93Q319.60 211.65 319.21 211.65Q319.21 211.65 319.12 211.65Q319.03 211.65 319.03 211.65L319.01 211.50L320.21 211.50M338.19 211.54L339.59 211.54L339.59 222L338.19 222L338.19 211.54M334.40 211.49L343.38 211.49L343.38 212L334.40 212L334.40 211.49M342.14 211.95L343.38 211.95L343.38 213.34L343.23 213.33L343.23 213.10Q343.23 212.63 342.92 212.32Q342.62 212.01 342.14 212L342.14 211.95M343.38 211.22L343.38 211.65L341.55 211.49Q341.88 211.49 342.25 211.44Q342.62 211.40 342.93 211.34Q343.25 211.28 343.38 211.22M338.19 220.91L338.24 220.91L338.24 222L337.04 222L337.04 221.85Q337.04 221.85 337.13 221.85Q337.23 221.85 337.23 221.85Q337.62 221.85 337.90 221.57Q338.18 221.29 338.19 220.91M339.54 222L339.54 220.91L339.59 220.91Q339.60 221.29 339.88 221.57Q340.16 221.85 340.55 221.85Q340.55 221.85 340.64 221.85Q340.74 221.85 340.74 221.85L340.74 222L339.54 222M334.40 211.95L335.64 211.95L335.64 212Q335.16 212.01 334.85 212.32Q334.55 212.63 334.55 213.10L334.55 213.33L334.40 213.34L334.40 211.95M334.40 211.65L334.40 211.22Q334.55 211.28 334.85 211.34Q335.16 211.40 335.54 211.44Q335.91 211.49 336.23 211.49L334.40 211.65M352.60 211.50L354 211.50L354 222L352.60 222L352.60 211.50M352.60 220.91L352.65 220.91L352.65 222L351.45 222L351.45 221.85Q351.45 221.85 351.54 221.85Q351.64 221.85 351.64 221.85Q352.03 221.85 352.31 221.57Q352.59 221.29 352.60 220.91M352.65 211.50L352.65 212.59L352.60 212.59Q352.59 212.21 352.31 211.93Q352.03 211.65 351.64 211.65Q351.64 211.65 351.54 211.65Q351.45 211.65 351.45 211.65L351.45 211.50L352.65 211.50M353.95 222L353.95 220.91L354 220.91Q354.01 221.29 354.29 221.57Q354.57 221.85 354.96 221.85Q354.96 221.85 355.05 221.85Q355.14 221.85 355.15 221.85L355.15 222L353.95 222M354 212.59L353.95 212.59L353.95 211.50L355.15 211.50L355.15 211.65Q355.14 211.65 355.05 211.65Q354.96 211.65 354.96 211.65Q354.57 211.65 354.29 211.93Q354.01 212.21 354 212.59M373.24 217.62L373.36 217.62L373.28 220.05Q372.91 220.66 372.33 221.15Q371.75 221.64 370.94 221.93Q370.13 222.21 369.07 222.21Q367.42 222.19 366.15 221.53Q364.88 220.86 364.18 219.64Q363.47 218.41 363.47 216.74Q363.47 215.09 364.17 213.86Q364.87 212.64 366.13 211.97Q367.40 211.29 369.14 211.29Q370.28 211.29 371.20 211.57Q372.11 211.84 372.76 212.25L372.97 214.51L372.83 214.51Q372.47 213.13 371.49 212.47Q370.51 211.80 369.20 211.80Q367.91 211.80 366.98 212.41Q366.05 213.01 365.54 214.12Q365.03 215.22 365.03 216.72Q365.03 218.21 365.53 219.31Q366.04 220.43 366.94 221.05Q367.85 221.67 369.07 221.70Q370.16 221.70 371.03 221.31Q371.90 220.92 372.47 220.03Q373.04 219.13 373.24 217.62M385.05 211.29Q385.31 211.29 385.64 211.32Q385.97 211.35 386.30 211.40Q386.64 211.46 386.90 211.51Q387.17 211.56 387.29 211.62L387.23 213.41L387.09 213.41Q387.09 212.67 386.57 212.24Q386.04 211.80 385.25 211.80Q384.41 211.80 383.89 212.29Q383.37 212.78 383.37 213.44Q383.36 213.76 383.54 214.13Q383.73 214.50 384.12 214.81L387.05 217.26Q387.57 217.66 387.79 218.20Q388.01 218.73 387.99 219.30Q387.96 220.62 387.11 221.41Q386.25 222.21 384.80 222.21Q384.33 222.21 383.80 222.12Q383.27 222.03 382.80 221.84Q382.34 221.66 382.05 221.35Q381.98 221.09 381.98 220.69Q381.99 220.29 382.07 219.87Q382.16 219.45 382.29 219.12L382.43 219.12Q382.35 219.88 382.64 220.49Q382.94 221.09 383.50 221.41Q384.06 221.73 384.80 221.70Q385.68 221.67 386.26 221.15Q386.84 220.63 386.84 219.79Q386.84 219.36 386.64 219Q386.45 218.64 386.04 218.35L383.25 215.99Q382.68 215.56 382.44 215Q382.20 214.43 382.23 213.85Q382.26 213.18 382.59 212.59Q382.92 212 383.54 211.64Q384.17 211.29 385.05 211.29M385.94 211.44L387.29 211.44L387.29 211.75L385.94 211.75" fill="#9C6B95"></path>
</svg>